<svg width="18" height="18" viewBox="0 0 18 18" fill="none" xmlns="http://www.w3.org/2000/svg">
<path d="M8.53061 2.66588C7.2652 2.66588 6.0282 3.04112 4.97605 3.74415C3.9239 4.44717 3.10385 5.44641 2.61959 6.6155C2.13534 7.78459 2.00864 9.07102 2.25551 10.3121C2.50238 11.5532 3.11173 12.6932 4.00651 13.588C4.9013 14.4828 6.04132 15.0922 7.28242 15.339C8.52352 15.5859 9.80995 15.4592 10.979 14.9749C12.1481 14.4907 13.1474 13.6706 13.8504 12.6185C14.5534 11.5663 14.9287 10.3293 14.9287 9.06392C14.9267 7.36765 14.252 5.74141 13.0526 4.54197C11.8531 3.34252 10.2269 2.66782 8.53061 2.66588ZM11.5737 6.77529L8.90783 9.44114C8.85829 9.49068 8.79948 9.52997 8.73476 9.55678C8.67004 9.58359 8.60067 9.59739 8.53061 9.59739C8.46056 9.59739 8.39119 9.58359 8.32646 9.55678C8.26174 9.52997 8.20293 9.49068 8.15339 9.44114C8.10386 9.39161 8.06456 9.3328 8.03775 9.26807C8.01094 9.20335 7.99715 9.13398 7.99715 9.06392C7.99715 8.99387 8.01094 8.9245 8.03775 8.85978C8.06456 8.79505 8.10386 8.73624 8.15339 8.68671L10.8192 6.02086C10.8688 5.97132 10.9276 5.93202 10.9923 5.90522C11.057 5.87841 11.1264 5.86461 11.1965 5.86461C11.2665 5.86461 11.3359 5.87841 11.4006 5.90522C11.4653 5.93202 11.5241 5.97132 11.5737 6.02086C11.6232 6.07039 11.6625 6.1292 11.6893 6.19393C11.7161 6.25865 11.7299 6.32802 11.7299 6.39807C11.7299 6.46813 11.7161 6.5375 11.6893 6.60222C11.6625 6.66695 11.6232 6.72576 11.5737 6.77529ZM6.39793 1.06637C6.39793 0.924968 6.45411 0.789354 6.55409 0.689365C6.65408 0.589376 6.7897 0.533203 6.9311 0.533203H10.1301C10.2715 0.533203 10.4071 0.589376 10.5071 0.689365C10.6071 0.789354 10.6633 0.924968 10.6633 1.06637C10.6633 1.20778 10.6071 1.34339 10.5071 1.44338C10.4071 1.54337 10.2715 1.59954 10.1301 1.59954H6.9311C6.7897 1.59954 6.65408 1.54337 6.55409 1.44338C6.45411 1.34339 6.39793 1.20778 6.39793 1.06637Z" fill="white"/>
</svg>
